<svg id="visual" viewBox="0 0 900 600" width="900" height="600" xmlns="http://www.w3.org/2000/svg" xmlns:xlink="http://www.w3.org/1999/xlink" version="1.1"><rect x="0" y="0" width="900" height="600" fill="#141414"></rect><defs><linearGradient id="grad1_0" x1="33.3%" y1="0%" x2="100%" y2="100%"><stop offset="20%" stop-color="#141414" stop-opacity="1"></stop><stop offset="80%" stop-color="#141414" stop-opacity="1"></stop></linearGradient></defs><defs><linearGradient id="grad2_0" x1="0%" y1="0%" x2="66.7%" y2="100%"><stop offset="20%" stop-color="#141414" stop-opacity="1"></stop><stop offset="80%" stop-color="#141414" stop-opacity="1"></stop></linearGradient></defs><g transform="translate(900, 0)"><path d="M0 162.2C-27.8 157.3 -55.6 152.3 -80.5 139.4C-105.4 126.5 -127.4 105.7 -140.5 81.1C-153.7 56.6 -158 28.3 -162.2 0L0 0Z" fill="#97fb57"></path></g><g transform="translate(0, 600)"><path d="M0 -162.2C28.4 -158 56.8 -153.8 81.1 -140.5C105.5 -127.2 125.7 -104.9 138.6 -80C151.4 -55.1 156.8 -27.5 162.2 0L0 0Z" fill="#97fb57"></path></g></svg>