<svg id="visual" viewBox="0 0 900 100" width="900" height="100" xmlns="http://www.w3.org/2000/svg" xmlns:xlink="http://www.w3.org/1999/xlink" version="1.1"><rect x="0" y="0" width="900" height="100" fill="#1a1a1a"></rect><path d="M0 65L16.7 64.3C33.3 63.7 66.7 62.3 100 60.3C133.3 58.3 166.7 55.7 200 55.7C233.3 55.7 266.7 58.3 300 58.2C333.3 58 366.7 55 400 54.7C433.3 54.3 466.7 56.7 500 56.7C533.3 56.7 566.7 54.3 600 49.3C633.3 44.3 666.7 36.7 700 39.3C733.3 42 766.7 55 800 60.7C833.3 66.3 866.7 64.7 883.3 63.8L900 63L900 101L883.3 101C866.7 101 833.3 101 800 101C766.7 101 733.3 101 700 101C666.7 101 633.3 101 600 101C566.7 101 533.3 101 500 101C466.7 101 433.3 101 400 101C366.7 101 333.3 101 300 101C266.7 101 233.3 101 200 101C166.7 101 133.3 101 100 101C66.7 101 33.3 101 16.7 101L0 101Z" fill="#97fb57" stroke-linecap="round" stroke-linejoin="miter"></path></svg>