<svg id="visual" viewBox="0 0 900 50" width="900" height="50" xmlns="http://www.w3.org/2000/svg" xmlns:xlink="http://www.w3.org/1999/xlink" version="1.1"><rect x="0" y="0" width="900" height="50" fill="#1a1a1a"></rect><path d="M0 30L16.7 29.3C33.3 28.7 66.7 27.3 100 27.8C133.3 28.3 166.7 30.7 200 28.7C233.3 26.7 266.7 20.3 300 17.7C333.3 15 366.7 16 400 19.2C433.3 22.3 466.7 27.7 500 29.7C533.3 31.7 566.7 30.3 600 28.7C633.3 27 666.7 25 700 24.8C733.3 24.7 766.7 26.3 800 27C833.3 27.7 866.7 27.3 883.3 27.2L900 27L900 0L883.3 0C866.7 0 833.3 0 800 0C766.7 0 733.3 0 700 0C666.7 0 633.3 0 600 0C566.7 0 533.3 0 500 0C466.7 0 433.3 0 400 0C366.7 0 333.3 0 300 0C266.7 0 233.3 0 200 0C166.7 0 133.3 0 100 0C66.7 0 33.3 0 16.7 0L0 0Z" fill="#141414" stroke-linecap="round" stroke-linejoin="miter"></path></svg>